<?xml version="1.0" encoding="utf-8"?>
<!-- Generator: Adobe Illustrator 25.0.1, SVG Export Plug-In . SVG Version: 6.00 Build 0)  -->
<svg version="1.1" id="Layer_1" xmlns="http://www.w3.org/2000/svg" xmlns:xlink="http://www.w3.org/1999/xlink" x="0px"
     y="0px"
     viewBox="0 0 24 24" style="enable-background:new 0 0 24 24;" xml:space="preserve">
<style type="text/css">
	.st0{fill:#005AE0;}
</style>
    <g>
	<g>
		<path class="st0" d="M12,4.2c-4.8,0-8.8,2.8-8.8,6.3c0,2.3,1.7,4.4,4.5,5.5c-0.1,0.5-0.4,1.3-1.7,2.5c-0.2,0.2-0.3,0.5-0.1,0.8
			c0.1,0.2,0.3,0.3,0.6,0.3c0.1,0,0.1,0,0.2,0c0.2,0,3.8-1.1,6.2-2.8c4.5-0.3,8-3,8-6.3C20.8,7.1,16.8,4.2,12,4.2z M12.6,16l-0.1,0
			l-0.1,0.1c-1.6,1.2-3.9,2.1-5.1,2.5c1.2-1.3,1.4-2.2,1.3-2.9l0-0.3l-0.3-0.1c-2.6-1-4.2-2.8-4.2-4.8c0-3,3.5-5.5,7.9-5.5
			c4.3,0,7.9,2.5,7.9,5.5C19.9,13.4,16.7,15.8,12.6,16z"/>
        <path class="st0" d="M10,8H9C8.8,8,8.6,8.2,8.6,8.4v4.9c0,0.2,0.2,0.4,0.4,0.4h1c0.2,0,0.4-0.2,0.4-0.4V8.4C10.4,8.2,10.2,8,10,8z
			"/>
        <path class="st0" d="M15,9.9h-1c-0.2,0-0.4,0.2-0.4,0.4v3c0,0.2,0.2,0.4,0.4,0.4h1c0.2,0,0.4-0.2,0.4-0.4v-3
			C15.4,10.1,15.2,9.9,15,9.9z"/>
        <path class="st0" d="M12.5,6.8h-1c-0.2,0-0.4,0.2-0.4,0.4v6.1c0,0.2,0.2,0.4,0.4,0.4h1c0.2,0,0.4-0.2,0.4-0.4V7.2
			C12.9,7,12.7,6.8,12.5,6.8z"/>
	</g>
</g>
</svg>
